<?xml version="1.0" encoding="UTF-8"?>
<svg width="200" height="100" viewBox="0 0 200 100" xmlns="http://www.w3.org/2000/svg">
    <path d="M100 10 C 120 30, 140 40, 160 50 C 180 60, 190 70, 200 80 C 190 90, 180 95, 170 100 C 160 95, 150 90, 140 85 C 130 80, 120 75, 110 70 C 100 65, 90 60, 80 55 C 70 50, 60 45, 50 40 C 40 35, 30 30, 20 25 C 10 20, 5 15, 0 10 C 5 5, 10 0, 20 5 C 30 10, 40 15, 50 20 C 60 25, 70 30, 80 35 C 90 40, 100 45, 110 50 C 120 55, 130 60, 140 65 C 150 70, 160 75, 170 80 C 180 85, 190 90, 200 95" 
          fill="none" 
          stroke="#333" 
          stroke-width="2"/>
    <circle cx="160" cy="50" r="3" fill="#333"/>
    <circle cx="140" cy="65" r="3" fill="#333"/>
    <circle cx="120" cy="55" r="3" fill="#333"/>
    <circle cx="100" cy="45" r="3" fill="#333"/>
    <circle cx="80" cy="35" r="3" fill="#333"/>
    <circle cx="60" cy="25" r="3" fill="#333"/>
    <circle cx="40" cy="15" r="3" fill="#333"/>
</svg> 